PathFileType	4	(X/Y/Z)	C:/Users/beibeiliu/ov580/test_trc/capture2\sequence.26_training_dense_left.trc
DataRate	CameraRate	NumFrames	NumMarkers	Units	OrigDataRate	OrigDataStartFrame	OrigNumFrames
120	120	24	19	mm	120	240	383
Frame#	Time	ThumbCMC			ThumbMCP			ThumbIP			ThumbTip			IndexMCP			IndexPIP			IndexTip			MiddleMCP			MiddlePIP			MiddleTip			RingMCP			RingPIP			RingTip			PinkyMCP			PinkyPIP			PinkyTip			BackHand1			BackHand2			BackHand3	
		X0	Y0	Z0	X1	Y1	Z1	X2	Y2	Z2	X3	Y3	Z3	X4	Y4	Z4	X5	Y5	Z5	X6	Y6	Z6	X7	Y7	Z7	X8	Y8	Z8	X9	Y9	Z9	X10	Y10	Z10	X11	Y11	Z11	X12	Y12	Z12	X13	Y13	Z13	X14	Y14	Z14	X15	Y15	Z15	X16	Y16	Z16	X17	Y17	Z17	X18	Y18	Z18	
239	1.99167	-172.408	44.5851	32.1793	-168.153	62.1829	10.1891	-167.527	72.8206	-15.5562	-158.039	78.5075	-40.1813	-140.706	30.8318	-37.2698	-127.975	50.8067	-57.0704	-113.338	77.0408	-39.2659	-118.346	31.5695	-35.7919	-101.346	58.5882	-34.3262	-113.409	67.8987	0.192386	-100.312	26.4487	-24.325	-91.6775	57.1248	-20.5211	-104.302	62.4458	7.25881	-92.5415	16.4012	-8.93705	-81.1294	46.7556	-14.5085	-96.2752	58.8199	6.17288	-125.519	-1.43988	16.9016	-136.542	-6.5756	47.5444	-159.36	9.54369	23.543	
240	2	-170.546	44.1905	29.3413	-171.107	62.6144	12.0354	-170.608	72.7656	-15.2536	-158.71	76.0467	-37.307	-141.693	27.4547	-37.2532	-126.101	42.7547	-61.6491	-111.943	66.1188	-61.4195	-114.028	31.3069	-37.3071	-101.3	56.0971	-38.4485	-111.864	71.8035	-2.66222	-102.261	28.718	-26.0444	-91.4084	56.2448	-21.0332	-106.956	62.3548	9.93957	-86.2331	17.1166	-12.4552	-79.1979	46.0131	-13.4494	-98.2969	59.1662	8.06644	-125.399	-3.70986	18.5023	-136.842	-3.35741	45.0071	-159.968	9.33404	22.5944	
241	2.00833	-168.499	41.8792	33.9661	-170.496	61.6955	10.4924	-171.108	70.4908	-18.6321	-162.64	75.3885	-36.2321	-144.233	27.22	-37.5618	-132.562	35.5352	-62.2229	-112.054	54.3965	-73.6976	-118.017	30.5193	-36.5455	-102.851	59.521	-38.7404	-108.409	74.1695	-5.10642	-100.034	28.2577	-25.7981	-89.0868	59.368	-16.8562	-109.139	62.5559	10.1964	-85.6695	18.1742	-11.1648	-80.3857	48.5165	-11.0229	-97.2147	57.9718	12.7117	-125.613	-4.34425	18.3292	-134.435	-4.9977	46.7423	-155.071	9.04664	20.5323	
242	2.01667	-170.871	43.0256	31.6218	-167.624	58.5051	8.85871	-172.284	69.9079	-16.3259	-167.775	76.6367	-40.6569	-144.335	27.7644	-40.8571	-131.632	33.653	-63.8725	-113.412	45.8521	-81.7255	-115.109	31.9217	-36.2398	-103.037	62.345	-36.1115	-105.969	74.6388	-4.03093	-96.6003	27.316	-23.6359	-92.9889	59.2006	-17.0899	-108.047	62.2347	14.374	-87.3162	18.8141	-11.9753	-82.2821	47.9337	-12.0971	-99.8718	57.693	15.3156	-128.64	-2.07333	16.6006	-137.008	-4.01427	46.8886	-158.881	9.39159	20.2155	
243	2.025	-170.356	41.5686	32.1333	-171.235	59.3797	10.4513	-170.401	67.6068	-15.6318	-168.811	74.9454	-37.6457	-141.97	25.1756	-38.5291	-131.462	29.9589	-60.9377	-118.022	37.9011	-84.7252	-115.554	32.9096	-35.0409	-99.4604	60.3234	-34.0926	-105.112	73.8994	0.0511111	-98.3467	27.0246	-20.0185	-91.6019	57.3459	-17.5624	-108.248	62.4839	16.392	-86.6176	20.4256	-11.0411	-80.0002	48.3551	-8.61655	-99.6563	57.0658	14.5853	-126.968	-1.73732	14.5533	-138.558	-4.78512	45.0634	-155.84	6.80448	23.6765	
244	2.03333	-168.525	41.3391	30.9202	-173.115	58.9423	11.4479	-172.277	66.5308	-13.2449	-171.032	74.1693	-39.7648	-143.031	25.8136	-35.8436	-132.775	28.3784	-58.6882	-122.75	34.8512	-83.7852	-115.331	32.5894	-34.5533	-97.9248	58.8111	-32.0877	-104.326	75.009	0.565215	-99.3504	29.5802	-20.9959	-92.3407	60.67	-12.0555	-106.551	63.189	18.5326	-86.4009	19.0337	-7.82212	-77.7155	47.3832	-6.88827	-99.3204	59.0193	16.8156	-124.156	-4.11475	20.0434	-136.436	-6.3518	44.5265	-160.317	10.5306	24.8967	
245	2.04167	-171.162	40.6955	34.034	-173.099	58.1608	6.79849	-174.696	66.2048	-13.489	-171.203	72.3317	-35.0412	-141.288	25.0896	-37.5554	-132.694	29.1751	-60.3073	-123.292	31.7067	-84.4766	-117.469	31.0485	-31.6424	-98.7816	58.4915	-32.1735	-103.114	74.825	1.25528	-99.9323	30.3435	-21.6299	-90.5238	59.5873	-10.6373	-104.391	63.7493	17.3112	-84.7083	17.9748	-5.89861	-80.2381	47.6714	-7.51551	-100.236	59.7732	17.0171	-124.44	-4.05354	16.9457	-136.561	-5.50838	46.2658	-159.681	8.8722	24.285	
246	2.05	-172.383	41.5934	31.602	-172.487	56.1576	6.84874	-174.413	63.6602	-11.9415	-173.247	70.2177	-35.2104	-141.301	24.5381	-38.7359	-133.904	28.08	-62.2314	-120.076	29.3011	-83.2616	-116.823	31.1081	-33.0572	-100.315	61.4634	-32.0905	-105.498	78.3499	-3.72712	-96.2991	27.171	-19.1731	-93.9782	60.5345	-12.1987	-107.616	62.3593	18.7258	-86.5514	21.5986	-8.51157	-83.5925	51.0945	-5.04541	-100.212	57.9767	16.0085	-126.775	-3.58423	15.6396	-136.905	-5.00783	49.0105	-157.355	8.53311	21.4989	
247	2.05833	-169.864	39.9484	31.9108	-169.907	55.6736	11.3829	-175.147	62.3862	-16.1498	-175.345	68.8887	-34.6124	-146.455	25.4134	-38.5708	-136.486	28.2566	-60.848	-125.753	29.9702	-83.7648	-117.305	31.2149	-33.8979	-102.343	59.0018	-36.248	-104.802	78.9651	-3.45248	-98.3068	27.5533	-20.0488	-90.0197	59.0396	-10.2014	-108.813	61.7247	18.8658	-85.6786	20.1349	-7.18201	-84.4165	50.1496	-4.94442	-105.179	58.4697	16.6656	-123.541	-5.55555	17.1295	-136.362	-6.35175	46.5579	-157.512	6.7558	26.494	
248	2.06667	-172.347	41.3857	31.7073	-172.6	55.5643	11.2693	-176.638	63.3213	-12.6746	-176.264	69.2195	-37.087	-144.31	24.599	-35.4263	-137.217	28.8081	-61.0479	-123.558	28.7509	-83.6188	-115.828	27.7206	-33.2009	-102.744	59.4719	-39.2118	-101.735	80.3468	-12.6326	-100.377	27.5205	-20.6059	-93.7752	58.5018	-13.9767	-109.289	64.1881	13.8939	-86.9181	19.6813	-6.55239	-84.2163	49.6098	-2.7408	-107.197	55.2615	22.2728	-126.379	-3.55432	16.3198	-138.717	-6.52705	46.6129	-157.148	9.39906	26.4336	
249	2.075	-172.134	40.2468	30.4534	-173.701	54.9203	10.0913	-177.411	62.4334	-17.1489	-178.939	69.6747	-35.6492	-144.356	22.9576	-38.9641	-137.567	27.3694	-58.9618	-127.012	29.454	-82.7916	-118.096	25.5038	-32.8412	-100.353	51.6852	-41.5807	-96.4992	78.2762	-15.9178	-99.4149	25.9435	-20.655	-92.4716	57.9246	-12.856	-111.21	60.2335	16.3141	-87.1879	19.8941	-8.08311	-82.3151	48.6266	-1.61085	-105.48	54.7757	22.4284	-124.127	-7.96844	18.7503	-137.517	-4.71722	48.111	-160.715	8.3348	26.8736	
250	2.08333	-168.385	38.2921	31.6245	-174.237	55.8421	9.43629	-176.873	62.1772	-16.3343	-178.401	68.1068	-33.6322	-149.295	23.3506	-37.5601	-137.364	24.1397	-58.8442	-125.811	26.691	-87.4375	-116.624	23.612	-37.4949	-102.973	49.3173	-46.6615	-93.1443	76.1751	-28.6213	-102.104	25.4283	-21.3478	-89.6082	54.4915	-13.196	-107.586	61.2849	13.1185	-89.1307	17.937	-7.04176	-83.8921	47.749	-1.50861	-105.004	54.0224	20.8161	-129.068	-6.51681	18.5453	-138.383	-5.27329	48.6172	-158.184	7.92857	27.5022	
251	2.09167	-172.876	40.5692	33.3941	-174.501	56.1017	12.0953	-176.762	62.4727	-15.1683	-177.281	66.3852	-37.6371	-147.65	21.9269	-38.8317	-139.559	24.5945	-61.7645	-130.316	25.7273	-84.2408	-120.764	21.4938	-37.8933	-102.385	41.1145	-51.0834	-90.5899	72.4543	-42.3232	-100.235	25.8584	-24.2081	-92.4837	54.6787	-17.4727	-107.321	60.9263	13.3121	-90.7504	17.0981	-6.68312	-83.952	46.9552	-4.46165	-108.631	53.8066	19.3759	-129.763	-6.3269	16.0191	-139.377	-6.97083	48.5957	-157.584	5.1405	25.8096	
252	2.1	-170.038	39.0664	33.9768	-176.085	54.5425	7.06809	-178.893	61.669	-14.6147	-180.053	67.9815	-36.6592	-150.322	21.8452	-35.8347	-138.844	22.5117	-63.1837	-130.661	21.6047	-87.0306	-119.663	17.8049	-39.2771	-105.308	36.0553	-55.7167	-88.1951	69.8261	-55.3631	-101.568	24.5238	-23.8036	-91.8986	51.8513	-19.8036	-103.398	62.1404	11.109	-85.7017	17.2093	-8.9704	-87.3607	47.563	-5.91025	-108.002	53.6188	15.5342	-129.392	-5.44164	18.54	-139.472	-7.23741	47.8206	-159.804	6.08569	25.3592	
253	2.10833	-173.631	41.4545	34.3621	-173.125	54.0527	9.7773	-180.203	61.369	-15.9299	-183.025	67.6956	-37.0074	-146.809	18.5621	-38.1467	-143.652	22.0049	-59.8991	-136.685	20.0212	-84.861	-121.015	16.4947	-40.1619	-107.582	30.0022	-58.2243	-87.8684	58.4545	-64.6935	-98.9642	25.1867	-25.0878	-89.6122	52.2838	-18.3219	-106.076	61.7959	12.0442	-87.1317	16.2553	-10.0516	-85.7032	46.8497	-6.88386	-102.715	56.9604	15.9369	-127.569	-7.61779	15.519	-136.867	-8.4097	45.433	-160.405	9.21827	23.6338	
254	2.11667	-170.115	38.6292	30.0803	-176.132	54.6932	8.00846	-179.864	60.5515	-14.5617	-182.046	65.4242	-39.485	-150.776	20.2277	-36.6066	-145.226	21.1602	-61.3256	-136.347	17.8208	-87.6282	-122.334	12.0692	-35.5042	-107.688	25.3116	-59.2667	-87.1172	53.4544	-73.4896	-101.327	21.5737	-24.2312	-92.6137	53.8242	-20.165	-104.738	62.4825	10.1522	-86.5514	14.6714	-8.9193	-84.8436	43.9763	-10.1878	-104.415	57.0069	12.8506	-129.386	-6.7928	16.0647	-137.644	-5.36618	46.6248	-160.715	8.43943	26.5494	
255	2.125	-168.521	38.5363	30.9781	-174.424	53.2152	10.3857	-180.653	60.0479	-14.6011	-181.551	63.8527	-39.0216	-150.908	18.108	-35.4364	-143.312	17.5832	-62.0973	-136.47	13.5606	-83.2929	-126.24	12.9852	-39.4841	-108.629	20.5847	-58.2722	-88.9013	42.1766	-76.6744	-104.624	20.4804	-25.3161	-89.9041	51.0372	-21.1888	-104.856	64.7135	6.68359	-88.5827	14.2802	-12.5945	-80.4398	41.4094	-10.0453	-101.037	57.5433	13.0491	-129.358	-6.50111	17.2032	-138.246	-6.11577	47.5733	-158.618	5.94686	28.6103	
256	2.13333	-171.8	39.5522	33.8896	-176.203	53.5742	9.76211	-177.892	56.709	-15.4764	-184.982	63.3187	-39.6433	-153.435	18.1354	-34.1842	-148.577	17.0831	-63.6406	-139.424	10.6783	-85.7515	-123.976	7.63962	-35.7976	-110.937	15.5974	-60.1568	-93.7827	32.6599	-80.4813	-103.948	20.3667	-27.4878	-90.4182	47.037	-25.1427	-101.613	62.6302	2.34582	-89.6377	10.3727	-11.3831	-84.7785	39.3527	-15.7297	-98.671	56.9341	6.57755	-128.537	-7.6548	17.6619	-138.924	-8.05875	48.1954	-158.313	4.4843	28.9332	
257	2.14167	-173.178	40.3698	33.5297	-177.388	52.7432	8.16695	-178.732	57.0413	-13.5823	-182.57	62.6718	-37.8365	-155.171	15.3992	-39.0791	-146.439	12.9883	-62.7602	-140.845	7.89475	-83.2671	-129.886	7.17647	-40.0439	-110.778	13.5512	-64.249	-97.5104	28.2307	-85.0271	-106.141	14.0263	-25.6094	-90.5087	43.0548	-28.17	-102.135	62.3602	-3.57896	-90.9496	9.34291	-11.4651	-84.8521	38.6236	-14.6291	-97.4955	57.5282	7.59018	-129.614	-7.96675	16.2619	-139.038	-9.32177	48.8425	-157.526	5.37626	23.5371	
258	2.15	-171.06	38.8511	32.3174	-173.529	52.9934	12.5603	-183.524	59.829	-16.367	-185.517	62.949	-35.9214	-154.397	15.0211	-37.4471	-149.522	12.4493	-60.712	-145.049	6.85319	-83.1055	-127.614	3.76305	-38.2302	-115.737	12.1057	-65.7108	-95.0619	23.1083	-86.6087	-105.911	15.1883	-28.8097	-93.7688	44.1114	-30.8052	-101.016	62.2866	-0.691219	-93.1088	9.40629	-15.1073	-83.375	39.0091	-15.1469	-96.5761	54.6645	3.5283	-130.07	-10.8642	18.9654	-141.549	-8.27509	46.3253	-159.277	5.56144	25.7143	
259	2.15833	-172.665	38.8961	29.9329	-176.528	52.779	9.35204	-182.56	56.8696	-17.9125	-188.78	64.6618	-36.221	-154.941	13.2586	-36.443	-155.555	14.3261	-60.0977	-149.654	7.43918	-83.631	-130.791	2.76222	-38.7791	-118.868	7.21605	-61.6698	-100.661	20.5963	-89.4311	-105.301	12.3047	-29.1012	-92.9141	38.0908	-32.597	-102.514	61.3541	-5.91651	-96.541	5.27184	-11.947	-82.4875	33.8423	-16.6123	-98.7814	55.6304	0.434234	-130.969	-13.7011	20.5262	-141.478	-8.76827	47.7654	-164.964	5.17117	24.1117	
260	2.16667	-172.055	37.3296	31.2679	-178.264	51.4829	9.62456	-184.08	56.5726	-15.0964	-187.203	62.4466	-34.1119	-156.214	11.9574	-37.8856	-152.115	10.9828	-58.2173	-151.013	5.74426	-84.1328	-134.284	1.81667	-37.5635	-122.559	4.65518	-61.8816	-105.51	14.8087	-90.0044	-112.643	9.56815	-28.0024	-96.4462	34.7462	-37.0333	-98.5983	58.9916	-12.6114	-95.1061	4.47597	-17.0408	-84.7022	27.6565	-23.2251	-96.5411	56.4435	-5.77093	-131.657	-13.0329	20.5913	-141.289	-10.5795	48.4408	-161.295	3.33374	27.0139	
261	2.175	-173.352	37.1468	35.5461	-179.001	51.5267	10.4622	-184.11	55.1011	-17.482	-189.656	60.5445	-36.6957	-162.395	13.7668	-37.41	-158.819	11.2923	-62.4433	-150.382	2.58596	-84.5075	-136.978	-0.6243	-38.5364	-123.069	0.526587	-63.0729	-109.33	7.40065	-86.3646	-113.062	4.95828	-28.0341	-93.8406	30.4351	-40.5171	-96.3395	58.3822	-23.2036	-100.274	-0.52647	-14.3346	-85.7095	21.9396	-26.8591	-92.4194	52.014	-15.7353	-133.946	-11.6293	16.6325	-140.814	-12.4413	46.4189	-168.104	4.98303	26.612	
262	2.18333	-174.426	37.2604	35.2048	-177.517	48.7716	9.62777	-185.989	55.7437	-11.5773	-192.267	60.4115	-39.6217	-160.592	10.8481	-37.1297	-161.255	10.623	-63.36	-153.409	0.680715	-86.462	-139.65	-0.440866	-36.1573	-129.888	-1.11558	-63.5353	-113.435	2.24071	-90.024	-115.493	1.93425	-30.8991	-97.5623	24.0274	-47.101	-94.1757	53.1022	-39.0096	-100.233	-5.08547	-16.9887	-85.4755	17.6332	-32.7616	-84.5462	44.6073	-31.5716	-139.952	-10.9862	20.0316	-143.21	-11.8579	51.0907	-164.839	4.20308	28.619	
